<svg xmlns="http://www.w3.org/2000/svg" xmlns:xlink="http://www.w3.org/1999/xlink" version="1.2" width="200.00mm" height="80.00mm" viewBox="0.0000 -0.0000 113.8110 45.5244">
<style type="text/css">
<![CDATA[
tspan { white-space: pre; }
]]>
</style>
<g transform="translate(47.1550, 18.0467)">
<rect x="0.0000" y="-4.0000" width="0.3800" height="8.0000" ry="0.0000" fill="currentColor"/>
</g>
<g transform="translate(14.2264, 22.0467)">
<line stroke-linejoin="round" stroke-linecap="round" stroke-width="0.2000" stroke="currentColor" x1="0.1000" y1="0" x2="65.9394" y2="0"/>
</g>
<g transform="translate(14.2264, 20.0467)">
<line stroke-linejoin="round" stroke-linecap="round" stroke-width="0.2000" stroke="currentColor" x1="0.1000" y1="0" x2="65.9394" y2="0"/>
</g>
<g transform="translate(14.2264, 18.0467)">
<line stroke-linejoin="round" stroke-linecap="round" stroke-width="0.2000" stroke="currentColor" x1="0.1000" y1="0" x2="65.9394" y2="0"/>
</g>
<g transform="translate(14.2264, 16.0467)">
<line stroke-linejoin="round" stroke-linecap="round" stroke-width="0.2000" stroke="currentColor" x1="0.1000" y1="0" x2="65.9394" y2="0"/>
</g>
<g transform="translate(14.2264, 14.0467)">
<line stroke-linejoin="round" stroke-linecap="round" stroke-width="0.2000" stroke="currentColor" x1="0.1000" y1="0" x2="65.9394" y2="0"/>
</g>
<g transform="translate(79.8857, 18.0467)">
<rect x="0.0000" y="-4.0000" width="0.3800" height="8.0000" ry="0.0000" fill="currentColor"/>
</g>
<g transform="translate(78.9057, 18.0467)">
<rect x="0.0000" y="-4.0000" width="0.3800" height="8.0000" ry="0.0000" fill="currentColor"/>
</g>
<g transform="translate(5.6906, 12.0467)">
<rect x="25.2769" y="-0.2000" width="4.1161" height="0.4000" ry="0.2000" fill="currentColor"/>
</g>
<g transform="translate(31.6535, 11.0467)">
<path transform="scale(0.0080, -0.0080)" d="M316 67c0 23 -18 42 -42 42c-40 0 -209 -113 -237 -147c-7 -8 -10 -19 -10 -29c0 -23 18 -42 42 -42c40 0 209 113 237 147c7 8 10 19 10 29zM265 135c38 0 78 -13 78 -68c0 -27 -19 -111 -76 -150c-19 -13 -85 -52 -189 -52c-38 0 -78 13 -78 68c0 27 19 111 76 150
c19 13 85 52 189 52z" fill="currentColor"/>
</g>
<g transform="translate(31.5744, 25.6826)">
<path transform="scale(0.0080, -0.0080)" d="M161 33c79 0 97 175 97 177c0 18 -7 33 -25 33c-60 0 -102 -122 -102 -172c0 -23 8 -38 30 -38zM-54 142c0 2 51 150 133 150c36 0 61 -21 68 -52c29 31 67 52 103 52c69 0 107 -49 107 -114c0 -119 -105 -185 -158 -185s-71 20 -85 20c-7 0 -13 -3 -15 -9l-33 -95
c-1 -2 -1 -4 -1 -6c0 -32 59 -15 59 -37c0 -6 -3 -12 -11 -12c-3 0 -50 5 -117 5s-115 -5 -118 -5c-8 0 -11 6 -11 12c0 28 86 -2 99 35l105 308c2 6 4 13 4 18c0 9 -4 16 -13 16c-34 0 -67 -59 -83 -97c-4 -10 -13 -15 -21 -15c-7 0 -12 4 -12 11z" fill="currentColor"/>
</g>
<g transform="translate(15.8264, 20.0467)">
<path transform="scale(0.0080, -0.0080)" d="M264 -594c47 0 165 26 165 246c0 32 -2 64 -5 96c-5 -1 -44 -8 -89 -8c-193 0 -333 178 -333 372c0 178 133 306 251 440c-27 93 -49 170 -49 345c0 116 55 226 150 295c5 4 11 4 16 0c67 -81 132 -246 132 -359c0 -144 -87 -256 -183 -365c20 -69 39 -138 55 -208
c2 0 7 1 15 1c154 0 254 -127 254 -259c0 -112 -73 -212 -180 -245c3 -36 5 -72 5 -108c0 -19 0 -37 -1 -56c-7 -120 -89 -226 -206 -226c-108 0 -195 87 -195 195c0 58 53 104 112 104c54 0 95 -48 95 -104c0 -52 -43 -95 -95 -95c-12 0 -24 4 -35 9c26 -41 70 -70 121 -70
zM459 -205c71 24 117 92 117 166c0 92 -69 184 -179 193c1 -5 45 -212 62 -359zM71 31c0 -146 142 -251 267 -251c1 0 46 0 82 6c-7 63 -28 201 -64 367c-79 -9 -125 -62 -125 -121c0 -44 26 -92 82 -124c4 -4 7 -9 7 -14c0 -11 -9 -21 -20 -21c-14 0 -125 62 -125 186
c0 88 57 173 158 196c-14 60 -30 119 -46 178c-108 -121 -216 -242 -216 -402zM411 1050c-99 -50 -161 -151 -161 -262c0 -59 11 -123 33 -200c82 97 149 198 149 325c0 35 0 69 -21 137z" fill="currentColor"/>
</g>
<g transform="translate(24.2264, 18.0467)">
<path transform="scale(0.0080, -0.0080)" d="M250 261c117 0 180 -102 180 -162c0 -40 -32 -74 -70 -74c-31 0 -76 25 -76 77c0 39 28 78 74 78c2 0 10 1 18 -1c-29 37 -76 60 -126 60c-106 0 -113 -73 -113 -185v-54v-54c0 -112 7 -185 113 -185c82 0 145 68 164 151c1 6 6 9 10 9c6 0 11 -4 11 -11
c0 -23 -51 -171 -185 -171c-59 0 -250 19 -250 261c0 62 18 261 250 261z" fill="currentColor"/>
</g>
<g transform="translate(24.2264, 4.6075)">
<rect x="1.8665" y="-4.7622" width="0.2064" height="4.4499" ry="0.0344" fill="currentColor"/>
</g>
<g transform="translate(24.2264, 4.6075)">
<path transform="scale(0.0063, -0.0063)" d="M222 135c64 0 104 -35 104 -86c0 -89 -114 -184 -221 -184c-64 0 -105 35 -105 86c0 89 115 184 222 184z" fill="currentColor"/>
</g>
<g transform="translate(26.2992, 5.4629)">
<text font-family="serif" font-size="3.9202" text-anchor="start" fill="currentColor">
<tspan> = 60</tspan>
</text>
</g>
<g transform="translate(35.3111, 11.0467)">
<path transform="scale(0.0080, -0.0080)" d="M0 0c0 32 25 57 57 57s57 -25 57 -57s-25 -57 -57 -57s-57 25 -57 57z" fill="currentColor"/>
</g>
<g transform="translate(31.7835, 18.0467)">
<rect x="-0.1300" y="-6.4632" width="0.2600" height="6.4632" ry="0.0400" fill="currentColor"/>
</g>
<g transform="translate(50.6850, 25.9705)">
<line stroke-linejoin="round" stroke-linecap="round" stroke-width="0.2000" stroke="currentColor" x1="0.0000" y1="0.0000" x2="11.5536" y2="1.3332"/>
</g>
<g transform="translate(50.6850, 25.9705)">
<line stroke-linejoin="round" stroke-linecap="round" stroke-width="0.2000" stroke="currentColor" x1="0.0000" y1="-0.0000" x2="11.5536" y2="-1.3332"/>
</g>
<g transform="translate(41.3475, 16.0467)">
<path transform="scale(0.0080, -0.0080)" d="M222 135c64 0 104 -35 104 -86c0 -89 -114 -184 -221 -184c-64 0 -105 35 -105 86c0 89 115 184 222 184z" fill="currentColor"/>
</g>
<g transform="translate(39.7341, 27.1705)">
<g>
<path transform="scale(0.0080, -0.0080)" d="M-38 141c0 11 54 157 146 157c23 0 37 -21 41 -47c22 27 51 47 81 47c24 0 40 -22 45 -49c21 28 49 49 79 49c33 0 59 -35 59 -69c0 -5 -1 -9 -2 -14l-35 -149c0 -2 -1 -4 -1 -5c0 -5 2 -8 7 -8c21 0 49 36 60 36c5 0 8 -3 8 -8c0 -8 -74 -87 -134 -87
c-20 0 -32 14 -32 32c0 3 0 6 1 10l39 165c1 5 2 9 2 14c0 10 -4 18 -14 18c-16 0 -33 -16 -39 -32l-53 -186c-2 -8 -12 -15 -20 -15h-46c-9 0 -13 6 -11 15l53 186c2 6 3 11 3 16c0 9 -4 16 -13 16c-16 0 -35 -15 -41 -32l-63 -186c-3 -9 -12 -15 -21 -15h-46
c-9 0 -13 6 -10 15l64 186c2 5 2 10 2 15c0 10 -3 17 -13 17c-29 0 -54 -53 -66 -87c-3 -10 -13 -14 -20 -14c-6 0 -10 3 -10 9z" fill="currentColor"/>

<path transform="translate(3.2778, 0.0000) scale(0.0080, -0.0080)" d="M254 251l-51 -165c-30 -99 -121 -256 -218 -256c-45 0 -87 25 -87 65c0 39 17 77 52 77c24 0 44 -20 44 -44c0 -30 -38 -25 -38 -55c0 -10 11 -10 23 -10h6c50 0 60 61 73 113l69 275h-53c-9 0 -16 8 -16 17s7 17 16 17h62c31 97 119 193 214 193c45 0 87 -24 87 -64
c0 -39 -17 -78 -52 -78c-24 0 -44 20 -44 44c0 30 38 25 38 55c0 10 -10 11 -22 11c-2 0 -5 -1 -7 -1c-65 0 -70 -93 -87 -160h58c9 0 17 -8 17 -17s-8 -17 -17 -17h-67z" fill="currentColor"/>
</g>
</g>
<g transform="translate(42.6533, 13.0467)">
<path transform="scale(0.0080, -0.0080)" d="M-50 0c0 28 22 50 50 50s50 -22 50 -50s-22 -50 -50 -50s-50 22 -50 50z" fill="currentColor"/>
</g>
<g transform="translate(41.4775, 18.0467)">
<rect x="-0.1300" y="-1.6065" width="0.2600" height="6.6065" ry="0.0400" fill="currentColor"/>
</g>
<g transform="translate(50.6850, 16.0467)">
<path transform="scale(0.0080, -0.0080)" d="M215 114c-41 0 -71 -27 -71 -88c0 -104 91 -140 139 -140c41 0 70 27 70 88c0 104 -90 140 -138 140zM249 135c145 0 248 -64 248 -135s-103 -135 -248 -135s-249 64 -249 135s104 135 249 135z" fill="currentColor"/>
</g>
<g transform="translate(48.1350, 16.0467)">
<path transform="scale(0.0080, -0.0080)" d="M0 121c0 7 5 13 11 15l49 17v163c0 9 8 17 17 17s17 -8 17 -17v-151l87 31v162c0 9 8 17 17 17s17 -8 17 -17v-150l39 13c10 4 21 -4 21 -15v-64c0 -7 -5 -13 -11 -15l-49 -18v-164l39 14c10 4 21 -4 21 -15v-65c0 -7 -5 -13 -11 -15l-49 -17v-163c0 -9 -8 -17 -17 -17
s-17 8 -17 17v151l-87 -31v-162c0 -9 -8 -17 -17 -17s-17 8 -17 17v150l-39 -13c-10 -4 -21 4 -21 15v64c0 7 5 13 11 15l49 18v164l-39 -14c-10 -4 -21 4 -21 15v65zM181 97l-87 -30v-164l87 30v164z" fill="currentColor"/>
</g>
<g transform="translate(64.7582, 27.1705)">
<path transform="scale(0.0080, -0.0080)" d="M254 251l-51 -165c-30 -99 -121 -256 -218 -256c-45 0 -87 25 -87 65c0 39 17 77 52 77c24 0 44 -20 44 -44c0 -30 -38 -25 -38 -55c0 -10 11 -10 23 -10h6c50 0 60 61 73 113l69 275h-53c-9 0 -16 8 -16 17s7 17 16 17h62c31 97 119 193 214 193c45 0 87 -24 87 -64
c0 -39 -17 -78 -52 -78c-24 0 -44 20 -44 44c0 30 38 25 38 55c0 10 -10 11 -22 11c-2 0 -5 -1 -7 -1c-65 0 -70 -93 -87 -160h58c9 0 17 -8 17 -17s-8 -17 -17 -17h-67z" fill="currentColor"/>
</g>
<g transform="translate(77.3636, 27.1705)">
<path transform="scale(0.0080, -0.0080)" d="M161 33c79 0 97 175 97 177c0 18 -7 33 -25 33c-60 0 -102 -122 -102 -172c0 -23 8 -38 30 -38zM-54 142c0 2 51 150 133 150c36 0 61 -21 68 -52c29 31 67 52 103 52c69 0 107 -49 107 -114c0 -119 -105 -185 -158 -185s-71 20 -85 20c-7 0 -13 -3 -15 -9l-33 -95
c-1 -2 -1 -4 -1 -6c0 -32 59 -15 59 -37c0 -6 -3 -12 -11 -12c-3 0 -50 5 -117 5s-115 -5 -118 -5c-8 0 -11 6 -11 12c0 28 86 -2 99 35l105 308c2 6 4 13 4 18c0 9 -4 16 -13 16c-34 0 -67 -59 -83 -97c-4 -10 -13 -15 -21 -15c-7 0 -12 4 -12 11z" fill="currentColor"/>
</g>
<g transform="translate(2.6664, 19.5410)">
<text font-family="serif" font-size="4.3999" text-anchor="start" fill="currentColor">
<tspan>Violín</tspan>
</text>
</g>
<g transform="translate(68.3189, 25.9705)">
<line stroke-linejoin="round" stroke-linecap="round" stroke-width="0.2000" stroke="currentColor" x1="0.0000" y1="1.3332" x2="7.6957" y2="0.0000"/>
</g>
<g transform="translate(68.3189, 25.9705)">
<line stroke-linejoin="round" stroke-linecap="round" stroke-width="0.2000" stroke="currentColor" x1="0.0000" y1="-1.3332" x2="7.6957" y2="-0.0000"/>
</g>
</svg>
