<svg xmlns="http://www.w3.org/2000/svg" xmlns:xlink="http://www.w3.org/1999/xlink" version="1.2" width="200.00mm" height="50.00mm" viewBox="0.0000 -0.0000 113.8110 28.4528">
<style type="text/css">
<![CDATA[
tspan { white-space: pre; }
]]>
</style>
<g transform="translate(5.6906, 8.4089)">
<rect x="34.2981" y="-0.2000" width="3.6051" height="0.4000" ry="0.2000" fill="currentColor"/>
</g>
<g transform="translate(14.2264, 18.4089)">
<line stroke-linejoin="round" stroke-linecap="round" stroke-width="0.2000" stroke="currentColor" x1="0.1000" y1="0" x2="55.0751" y2="0"/>
</g>
<g transform="translate(14.2264, 16.4089)">
<line stroke-linejoin="round" stroke-linecap="round" stroke-width="0.2000" stroke="currentColor" x1="0.1000" y1="0" x2="55.0751" y2="0"/>
</g>
<g transform="translate(14.2264, 14.4089)">
<line stroke-linejoin="round" stroke-linecap="round" stroke-width="0.2000" stroke="currentColor" x1="0.1000" y1="0" x2="55.0751" y2="0"/>
</g>
<g transform="translate(14.2264, 12.4089)">
<line stroke-linejoin="round" stroke-linecap="round" stroke-width="0.2000" stroke="currentColor" x1="0.1000" y1="0" x2="55.0751" y2="0"/>
</g>
<g transform="translate(14.2264, 10.4089)">
<line stroke-linejoin="round" stroke-linecap="round" stroke-width="0.2000" stroke="currentColor" x1="0.1000" y1="0" x2="55.0751" y2="0"/>
</g>
<g transform="translate(69.0215, 14.4089)">
<rect x="0.0000" y="-4.0000" width="0.3800" height="8.0000" ry="0.0000" fill="currentColor"/>
</g>
<g transform="translate(68.0415, 14.4089)">
<rect x="0.0000" y="-4.0000" width="0.3800" height="8.0000" ry="0.0000" fill="currentColor"/>
</g>
<g transform="translate(48.5252, 14.4089)">
<rect x="0.0000" y="-4.0000" width="0.3800" height="8.0000" ry="0.0000" fill="currentColor"/>
</g>
<g transform="translate(50.7052, 19.4089)">
<path transform="scale(0.0080, -0.0080)" d="M316 67c0 23 -18 42 -42 42c-40 0 -209 -113 -237 -147c-7 -8 -10 -19 -10 -29c0 -23 18 -42 42 -42c40 0 209 113 237 147c7 8 10 19 10 29zM265 135c38 0 78 -13 78 -68c0 -27 -19 -111 -76 -150c-19 -13 -85 -52 -189 -52c-38 0 -78 13 -78 68c0 27 19 111 76 150
c19 13 85 52 189 52z" fill="currentColor"/>
</g>
<g transform="translate(5.6906, 14.4089)">
<line stroke-linejoin="round" stroke-linecap="round" stroke-width="0.2000" stroke="currentColor" x1="37.5063" y1="-5.5921" x2="44.7255" y2="4.5921"/>
</g>
<g transform="translate(31.3676, 14.4089)">
<path transform="scale(0.0080, -0.0080)" d="M367 0h-359c-4 0 -8 4 -8 8v140c0 4 4 8 8 8h359c4 0 8 -4 8 -8v-140c0 -4 -4 -8 -8 -8z" fill="currentColor"/>
</g>
<g transform="translate(15.8264, 16.4089)">
<path transform="scale(0.0080, -0.0080)" d="M264 -594c47 0 165 26 165 246c0 32 -2 64 -5 96c-5 -1 -44 -8 -89 -8c-193 0 -333 178 -333 372c0 178 133 306 251 440c-27 93 -49 170 -49 345c0 116 55 226 150 295c5 4 11 4 16 0c67 -81 132 -246 132 -359c0 -144 -87 -256 -183 -365c20 -69 39 -138 55 -208
c2 0 7 1 15 1c154 0 254 -127 254 -259c0 -112 -73 -212 -180 -245c3 -36 5 -72 5 -108c0 -19 0 -37 -1 -56c-7 -120 -89 -226 -206 -226c-108 0 -195 87 -195 195c0 58 53 104 112 104c54 0 95 -48 95 -104c0 -52 -43 -95 -95 -95c-12 0 -24 4 -35 9c26 -41 70 -70 121 -70
zM459 -205c71 24 117 92 117 166c0 92 -69 184 -179 193c1 -5 45 -212 62 -359zM71 31c0 -146 142 -251 267 -251c1 0 46 0 82 6c-7 63 -28 201 -64 367c-79 -9 -125 -62 -125 -121c0 -44 26 -92 82 -124c4 -4 7 -9 7 -14c0 -11 -9 -21 -20 -21c-14 0 -125 62 -125 186
c0 88 57 173 158 196c-14 60 -30 119 -46 178c-108 -121 -216 -242 -216 -402zM411 1050c-99 -50 -161 -151 -161 -262c0 -59 11 -123 33 -200c82 97 149 198 149 325c0 35 0 69 -21 137z" fill="currentColor"/>
</g>
<g transform="translate(24.2264, 14.4089)">
<path transform="scale(0.0080, -0.0080)" d="M-2 146c0 13 148 151 148 339c0 10 7 18 15 15c22 -7 44 -13 67 -13s45 6 67 13c12 4 21 -8 15 -15l-283 -333h173v147c0 32 34 24 65 67c11 15 18 32 25 49c4 9 20 7 20 -7v-256h68c9 0 13 -7 13 -14s-4 -13 -13 -13h-68v-16c0 -45 26 -88 68 -88c7 0 10 -5 10 -10
s-3 -11 -10 -11c-41 0 -82 13 -123 13s-82 -13 -123 -13c-7 0 -10 6 -10 11s3 10 10 10c42 0 68 43 68 88v16h-173c-21 0 -29 13 -29 21z" fill="currentColor"/>
</g>
<g transform="translate(24.2264, 18.4407)">
<path transform="scale(0.0080, -0.0080)" d="M-2 146c0 13 148 151 148 339c0 10 7 18 15 15c22 -7 44 -13 67 -13s45 6 67 13c12 4 21 -8 15 -15l-283 -333h173v147c0 32 34 24 65 67c11 15 18 32 25 49c4 9 20 7 20 -7v-256h68c9 0 13 -7 13 -14s-4 -13 -13 -13h-68v-16c0 -45 26 -88 68 -88c7 0 10 -5 10 -10
s-3 -11 -10 -11c-41 0 -82 13 -123 13s-82 -13 -123 -13c-7 0 -10 6 -10 11s3 10 10 10c42 0 68 43 68 88v16h-173c-21 0 -29 13 -29 21z" fill="currentColor"/>
</g>
<g transform="translate(24.2264, 4.6075)">
<rect x="1.8665" y="-4.7622" width="0.2064" height="4.4499" ry="0.0344" fill="currentColor"/>
</g>
<g transform="translate(24.2264, 4.6075)">
<path transform="scale(0.0063, -0.0063)" d="M222 135c64 0 104 -35 104 -86c0 -89 -114 -184 -221 -184c-64 0 -105 35 -105 86c0 89 115 184 222 184z" fill="currentColor"/>
</g>
<g transform="translate(26.2992, 5.4629)">
<text font-family="serif" font-size="3.9202" text-anchor="start" fill="currentColor">
<tspan> = 120</tspan>
</text>
</g>
<g transform="translate(43.8161, 22.8226)">
<line stroke-linejoin="round" stroke-linecap="round" stroke-width="0.2000" stroke="currentColor" x1="0.0000" y1="1.3332" x2="4.0892" y2="0.0000"/>
</g>
<g transform="translate(43.8161, 22.8226)">
<line stroke-linejoin="round" stroke-linecap="round" stroke-width="0.2000" stroke="currentColor" x1="0.0000" y1="-1.3332" x2="4.0892" y2="-0.0000"/>
</g>
<g transform="translate(40.1637, 8.4089)">
<path transform="scale(0.0080, -0.0080)" d="M316 67c0 23 -18 42 -42 42c-40 0 -209 -113 -237 -147c-7 -8 -10 -19 -10 -29c0 -23 18 -42 42 -42c40 0 209 113 237 147c7 8 10 19 10 29zM265 135c38 0 78 -13 78 -68c0 -27 -19 -111 -76 -150c-19 -13 -85 -52 -189 -52c-38 0 -78 13 -78 68c0 27 19 111 76 150
c19 13 85 52 189 52z" fill="currentColor"/>
</g>
<g transform="translate(40.2553, 24.0226)">
<path transform="scale(0.0080, -0.0080)" d="M254 251l-51 -165c-30 -99 -121 -256 -218 -256c-45 0 -87 25 -87 65c0 39 17 77 52 77c24 0 44 -20 44 -44c0 -30 -38 -25 -38 -55c0 -10 11 -10 23 -10h6c50 0 60 61 73 113l69 275h-53c-9 0 -16 8 -16 17s7 17 16 17h62c31 97 119 193 214 193c45 0 87 -24 87 -64
c0 -39 -17 -78 -52 -78c-24 0 -44 20 -44 44c0 30 38 25 38 55c0 10 -10 11 -22 11c-2 0 -5 -1 -7 -1c-65 0 -70 -93 -87 -160h58c9 0 17 -8 17 -17s-8 -17 -17 -17h-67z" fill="currentColor"/>
</g>
<g transform="translate(40.2937, 14.4089)">
<rect x="-0.1300" y="-5.4632" width="0.2600" height="6.4632" ry="0.0400" fill="currentColor"/>
</g>
<g transform="translate(38.2137, 8.4089)">
<path transform="scale(0.0080, -0.0080)" d="M25 44l-1 -69c0 -4 -1 -7 -1 -11c0 -22 2 -44 4 -66c46 38 96 80 96 139c0 34 -14 69 -44 69c-31 0 -53 -29 -54 -62zM-25 463c8 4 16 7 25 7s17 -3 25 -7l-6 -349c26 19 56 30 88 30c53 0 93 -46 93 -100c0 -82 -90 -118 -153 -169c-14 -11 -22 -32 -40 -32
c-12 0 -21 9 -21 21z" fill="currentColor"/>
</g>
<g transform="translate(50.6262, 24.0226)">
<path transform="scale(0.0080, -0.0080)" d="M161 33c79 0 97 175 97 177c0 18 -7 33 -25 33c-60 0 -102 -122 -102 -172c0 -23 8 -38 30 -38zM-54 142c0 2 51 150 133 150c36 0 61 -21 68 -52c29 31 67 52 103 52c69 0 107 -49 107 -114c0 -119 -105 -185 -158 -185s-71 20 -85 20c-7 0 -13 -3 -15 -9l-33 -95
c-1 -2 -1 -4 -1 -6c0 -32 59 -15 59 -37c0 -6 -3 -12 -11 -12c-3 0 -50 5 -117 5s-115 -5 -118 -5c-8 0 -11 6 -11 12c0 28 86 -2 99 35l105 308c2 6 4 13 4 18c0 9 -4 16 -13 16c-34 0 -67 -59 -83 -97c-4 -10 -13 -15 -21 -15c-7 0 -12 4 -12 11z" fill="currentColor"/>
</g>
<g transform="translate(53.3193, 14.4089)">
<rect x="-0.1300" y="-2.0000" width="0.2600" height="6.4632" ry="0.0400" fill="currentColor"/>
</g>
<g transform="translate(59.2454, 14.4089)">
<path transform="scale(0.0080, -0.0080)" d="M367 0h-359c-4 0 -8 4 -8 8v140c0 4 4 8 8 8h359c4 0 8 -4 8 -8v-140c0 -4 -4 -8 -8 -8z" fill="currentColor"/>
</g>
<g transform="translate(2.6664, 15.9032)">
<text font-family="serif" font-size="4.3999" text-anchor="start" fill="currentColor">
<tspan>Violín</tspan>
</text>
</g>
</svg>
