<svg xmlns="http://www.w3.org/2000/svg" xmlns:xlink="http://www.w3.org/1999/xlink" version="1.2" width="80.00mm" height="100.00mm" viewBox="0.0000 -0.0000 45.5244 56.9055">
<style type="text/css">
<![CDATA[
tspan { white-space: pre; }
]]>
</style>
<g transform="translate(8.5358, 7.1773)">
<text font-family="serif" font-size="2.2000" text-anchor="start" fill="currentColor">
<tspan>2</tspan>
</text>
</g>
<g transform="translate(8.5358, 15.9710)">
<line stroke-linejoin="round" stroke-linecap="round" stroke-width="0.1000" stroke="currentColor" x1="0.0500" y1="0" x2="11.8618" y2="0"/>
</g>
<g transform="translate(8.5358, 14.9710)">
<line stroke-linejoin="round" stroke-linecap="round" stroke-width="0.1000" stroke="currentColor" x1="0.0500" y1="0" x2="11.8618" y2="0"/>
</g>
<g transform="translate(8.5358, 13.9710)">
<line stroke-linejoin="round" stroke-linecap="round" stroke-width="0.1000" stroke="currentColor" x1="0.0500" y1="0" x2="11.8618" y2="0"/>
</g>
<g transform="translate(8.5358, 12.9710)">
<line stroke-linejoin="round" stroke-linecap="round" stroke-width="0.1000" stroke="currentColor" x1="0.0500" y1="0" x2="11.8618" y2="0"/>
</g>
<g transform="translate(8.5358, 11.9710)">
<line stroke-linejoin="round" stroke-linecap="round" stroke-width="0.1000" stroke="currentColor" x1="0.0500" y1="0" x2="11.8618" y2="0"/>
</g>
<g transform="translate(30.0729, 26.3918)">
<rect x="0.0000" y="-2.0000" width="0.1900" height="4.0000" ry="0.0000" fill="currentColor"/>
</g>
<g transform="translate(8.5358, 29.3918)">
<rect x="11.5858" y="-0.1000" width="1.7803" height="0.2000" ry="0.1000" fill="currentColor"/>
</g>
<g transform="translate(8.5358, 28.3918)">
<line stroke-linejoin="round" stroke-linecap="round" stroke-width="0.1000" stroke="currentColor" x1="0.0500" y1="0" x2="28.4028" y2="0"/>
</g>
<g transform="translate(8.5358, 27.3918)">
<line stroke-linejoin="round" stroke-linecap="round" stroke-width="0.1000" stroke="currentColor" x1="0.0500" y1="0" x2="28.4028" y2="0"/>
</g>
<g transform="translate(8.5358, 26.3918)">
<line stroke-linejoin="round" stroke-linecap="round" stroke-width="0.1000" stroke="currentColor" x1="0.0500" y1="0" x2="28.4028" y2="0"/>
</g>
<g transform="translate(8.5358, 25.3918)">
<line stroke-linejoin="round" stroke-linecap="round" stroke-width="0.1000" stroke="currentColor" x1="0.0500" y1="0" x2="28.4028" y2="0"/>
</g>
<g transform="translate(8.5358, 24.3918)">
<line stroke-linejoin="round" stroke-linecap="round" stroke-width="0.1000" stroke="currentColor" x1="0.0500" y1="0" x2="28.4028" y2="0"/>
</g>
<g transform="translate(8.5358, 40.8125)">
<line stroke-linejoin="round" stroke-linecap="round" stroke-width="0.1000" stroke="currentColor" x1="0.0500" y1="0" x2="11.8618" y2="0"/>
</g>
<g transform="translate(8.5358, 39.8125)">
<line stroke-linejoin="round" stroke-linecap="round" stroke-width="0.1000" stroke="currentColor" x1="0.0500" y1="0" x2="11.8618" y2="0"/>
</g>
<g transform="translate(8.5358, 38.8125)">
<line stroke-linejoin="round" stroke-linecap="round" stroke-width="0.1000" stroke="currentColor" x1="0.0500" y1="0" x2="11.8618" y2="0"/>
</g>
<g transform="translate(8.5358, 37.8125)">
<line stroke-linejoin="round" stroke-linecap="round" stroke-width="0.1000" stroke="currentColor" x1="0.0500" y1="0" x2="11.8618" y2="0"/>
</g>
<g transform="translate(8.5358, 36.8125)">
<line stroke-linejoin="round" stroke-linecap="round" stroke-width="0.1000" stroke="currentColor" x1="0.0500" y1="0" x2="11.8618" y2="0"/>
</g>
<g transform="translate(8.4758, 26.3918)">
<rect x="0.0000" y="-14.4707" width="0.1600" height="28.9415" ry="0.0500" fill="currentColor"/>
</g>
<a style="color:inherit;" xlink:href="textedit:///Users/zztt/projects/26-musiki/framework/public/lily/b682ba3365965b11499da7eafed46409.ly:16:45:46">
<g transform="translate(12.9008, 42.7586)">
<line stroke-linejoin="round" stroke-linecap="round" stroke-width="0.1000" stroke="currentColor" x1="0.0000" y1="0.2222" x2="5.2680" y2="0.6666"/>
</g>
<g transform="translate(12.9008, 42.7586)">
<line stroke-linejoin="round" stroke-linecap="round" stroke-width="0.1000" stroke="currentColor" x1="0.0000" y1="-0.2222" x2="5.2680" y2="-0.6666"/>
</g>
</a>
<g transform="translate(24.8303, 24.5818)">
<polygon stroke-linejoin="round" stroke-linecap="round" stroke-width="0.0800" fill="currentColor" stroke="currentColor" points="4.9026 -1.5800 4.9026 -1.1800 0.0400 0.2000 0.0400 -0.2000"/>
</g>
<g transform="translate(9.3358, 14.9710)">
<path transform="scale(0.0040, -0.0040)" d="M266 -635h-6c-108 0 -195 88 -195 197c0 58 53 103 112 103c54 0 95 -47 95 -103c0 -52 -43 -95 -95 -95c-11 0 -21 2 -31 6c26 -39 68 -65 117 -65h4zM401 151c19 -89 48 -242 60 -354c76 27 112 94 112 163c0 89 -60 179 -172 191zM74 28c0 -112 98 -247 278 -247
c21 0 44 2 68 6c-7 64 -29 203 -63 364c-79 -8 -124 -61 -124 -119c0 -44 25 -91 81 -123c5 -5 7 -10 7 -15c0 -11 -10 -22 -22 -22c-15 0 -126 62 -126 187c0 88 58 174 160 197c-14 58 -29 117 -46 175c-107 -121 -213 -243 -213 -403zM357 1194c28 0 143 -206 143 -361
c0 -143 -86 -255 -180 -364c21 -68 39 -138 56 -207c5 0 10 1 14 1c155 0 255 -129 255 -262c0 -113 -74 -212 -180 -245c3 -35 5 -70 5 -105c0 -19 -1 -39 -2 -58c-7 -119 -88 -225 -202 -228l1 43c93 2 153 92 159 191c1 18 2 37 2 55c0 31 -1 61 -4 92
c-28 -5 -55 -8 -80 -8c-239 0 -342 217 -342 374c0 177 131 306 248 441c-29 96 -52 170 -52 346c0 189 144 295 159 295zM247 782c0 -55 12 -115 35 -190c83 100 147 202 147 326c0 40 -6 82 -21 127c-49 -24 -161 -97 -161 -263z" fill="currentColor"/>
</g>
<g transform="translate(9.3358, 27.3918)">
<path transform="scale(0.0040, -0.0040)" d="M266 -635h-6c-108 0 -195 88 -195 197c0 58 53 103 112 103c54 0 95 -47 95 -103c0 -52 -43 -95 -95 -95c-11 0 -21 2 -31 6c26 -39 68 -65 117 -65h4zM401 151c19 -89 48 -242 60 -354c76 27 112 94 112 163c0 89 -60 179 -172 191zM74 28c0 -112 98 -247 278 -247
c21 0 44 2 68 6c-7 64 -29 203 -63 364c-79 -8 -124 -61 -124 -119c0 -44 25 -91 81 -123c5 -5 7 -10 7 -15c0 -11 -10 -22 -22 -22c-15 0 -126 62 -126 187c0 88 58 174 160 197c-14 58 -29 117 -46 175c-107 -121 -213 -243 -213 -403zM357 1194c28 0 143 -206 143 -361
c0 -143 -86 -255 -180 -364c21 -68 39 -138 56 -207c5 0 10 1 14 1c155 0 255 -129 255 -262c0 -113 -74 -212 -180 -245c3 -35 5 -70 5 -105c0 -19 -1 -39 -2 -58c-7 -119 -88 -225 -202 -228l1 43c93 2 153 92 159 191c1 18 2 37 2 55c0 31 -1 61 -4 92
c-28 -5 -55 -8 -80 -8c-239 0 -342 217 -342 374c0 177 131 306 248 441c-29 96 -52 170 -52 346c0 189 144 295 159 295zM247 782c0 -55 12 -115 35 -190c83 100 147 202 147 326c0 40 -6 82 -21 127c-49 -24 -161 -97 -161 -263z" fill="currentColor"/>
</g>
<g transform="translate(9.3358, 39.8125)">
<path transform="scale(0.0040, -0.0040)" d="M266 -635h-6c-108 0 -195 88 -195 197c0 58 53 103 112 103c54 0 95 -47 95 -103c0 -52 -43 -95 -95 -95c-11 0 -21 2 -31 6c26 -39 68 -65 117 -65h4zM401 151c19 -89 48 -242 60 -354c76 27 112 94 112 163c0 89 -60 179 -172 191zM74 28c0 -112 98 -247 278 -247
c21 0 44 2 68 6c-7 64 -29 203 -63 364c-79 -8 -124 -61 -124 -119c0 -44 25 -91 81 -123c5 -5 7 -10 7 -15c0 -11 -10 -22 -22 -22c-15 0 -126 62 -126 187c0 88 58 174 160 197c-14 58 -29 117 -46 175c-107 -121 -213 -243 -213 -403zM357 1194c28 0 143 -206 143 -361
c0 -143 -86 -255 -180 -364c21 -68 39 -138 56 -207c5 0 10 1 14 1c155 0 255 -129 255 -262c0 -113 -74 -212 -180 -245c3 -35 5 -70 5 -105c0 -19 -1 -39 -2 -58c-7 -119 -88 -225 -202 -228l1 43c93 2 153 92 159 191c1 18 2 37 2 55c0 31 -1 61 -4 92
c-28 -5 -55 -8 -80 -8c-239 0 -342 217 -342 374c0 177 131 306 248 441c-29 96 -52 170 -52 346c0 189 144 295 159 295zM247 782c0 -55 12 -115 35 -190c83 100 147 202 147 326c0 40 -6 82 -21 127c-49 -24 -161 -97 -161 -263z" fill="currentColor"/>
</g>
<g transform="translate(7.6481, 10.9210)">
<text font-family="serif" font-size="1.7459" text-anchor="start" fill="currentColor">
<tspan>2</tspan>
</text>
</g>
<g transform="translate(15.5100, 21.5818)">
<polygon stroke-linejoin="round" stroke-linecap="round" stroke-width="0.0800" fill="currentColor" stroke="currentColor" points="7.8060 -0.2000 7.8060 0.2000 0.0400 0.2000 0.0400 -0.2000"/>
</g>
<a style="color:inherit;" xlink:href="textedit:///Users/zztt/projects/26-musiki/framework/public/lily/b682ba3365965b11499da7eafed46409.ly:14:31:32">
<g transform="translate(14.3358, 14.9710)">
<path transform="scale(0.0040, -0.0040)" d="M0 -46c0 91 116 182 217 182c63 0 109 -35 109 -90c0 -87 -110 -182 -220 -182c-67 0 -106 39 -106 90z" fill="currentColor"/>
</g>
</a>
<a style="color:inherit;" xlink:href="textedit:///Users/zztt/projects/26-musiki/framework/public/lily/b682ba3365965b11499da7eafed46409.ly:15:60:61">
<g transform="translate(14.3358, 24.3918)">
<path transform="scale(0.0040, -0.0040)" d="M0 -46c0 91 116 182 217 182c63 0 109 -35 109 -90c0 -87 -110 -182 -220 -182c-67 0 -106 39 -106 90z" fill="currentColor"/>
</g>
</a>
<a style="color:inherit;" xlink:href="textedit:///Users/zztt/projects/26-musiki/framework/public/lily/b682ba3365965b11499da7eafed46409.ly:16:58:59">
<g transform="translate(14.3358, 37.8125)">
<path transform="scale(0.0040, -0.0040)" d="M0 -46c0 91 116 182 217 182c63 0 109 -35 109 -90c0 -87 -110 -182 -220 -182c-67 0 -106 39 -106 90z" fill="currentColor"/>
</g>
</a>
<g transform="translate(15.5750, 13.9710)">
<rect x="-0.0650" y="-2.5000" width="0.1300" height="3.3138" ry="0.0400" fill="currentColor"/>
</g>
<g transform="translate(15.5750, 26.3918)">
<rect x="-0.0650" y="-4.8100" width="0.1300" height="2.6238" ry="0.0400" fill="currentColor"/>
</g>
<g transform="translate(14.4008, 38.8125)">
<rect x="-0.0650" y="-0.8138" width="0.1300" height="2.6131" ry="0.0400" fill="currentColor"/>
</g>
<g transform="translate(14.3358, 39.8125)">
<polygon stroke-linejoin="round" stroke-linecap="round" stroke-width="0.0800" fill="currentColor" stroke="currentColor" points="4.9026 -1.0100 4.9026 -0.6100 0.0400 0.2000 0.0400 -0.2000"/>
</g>
<g transform="translate(14.3358, 40.6225)">
<polygon stroke-linejoin="round" stroke-linecap="round" stroke-width="0.0800" fill="currentColor" stroke="currentColor" points="4.9026 -1.0100 4.9026 -0.6100 0.0400 0.2000 0.0400 -0.2000"/>
</g>
<a style="color:inherit;" xlink:href="textedit:///Users/zztt/projects/26-musiki/framework/public/lily/b682ba3365965b11499da7eafed46409.ly:16:60:61">
<g transform="translate(15.9400, 37.3125)">
<path transform="scale(0.0040, -0.0040)" d="M0 -46c0 91 116 182 217 182c63 0 109 -35 109 -90c0 -87 -110 -182 -220 -182c-67 0 -106 39 -106 90z" fill="currentColor"/>
</g>
</a>
<g transform="translate(16.0050, 38.8125)">
<rect x="-0.0650" y="-1.3138" width="0.1300" height="2.8502" ry="0.0400" fill="currentColor"/>
</g>
<a style="color:inherit;" xlink:href="textedit:///Users/zztt/projects/26-musiki/framework/public/lily/b682ba3365965b11499da7eafed46409.ly:15:62:63">
<g transform="translate(17.5442, 23.8918)">
<path transform="scale(0.0040, -0.0040)" d="M0 -46c0 91 116 182 217 182c63 0 109 -35 109 -90c0 -87 -110 -182 -220 -182c-67 0 -106 39 -106 90z" fill="currentColor"/>
</g>
</a>
<a style="color:inherit;" xlink:href="textedit:///Users/zztt/projects/26-musiki/framework/public/lily/b682ba3365965b11499da7eafed46409.ly:16:62:63">
<g transform="translate(17.5442, 36.8125)">
<path transform="scale(0.0040, -0.0040)" d="M0 -46c0 91 116 182 217 182c63 0 109 -35 109 -90c0 -87 -110 -182 -220 -182c-67 0 -106 39 -106 90z" fill="currentColor"/>
</g>
</a>
<g transform="translate(18.7834, 26.3918)">
<rect x="-0.0650" y="-4.8100" width="0.1300" height="2.1238" ry="0.0400" fill="currentColor"/>
</g>
<g transform="translate(17.6092, 38.8125)">
<rect x="-0.0650" y="-1.8138" width="0.1300" height="3.0874" ry="0.0400" fill="currentColor"/>
</g>
<a style="color:inherit;" xlink:href="textedit:///Users/zztt/projects/26-musiki/framework/public/lily/b682ba3365965b11499da7eafed46409.ly:16:64:65">
<g transform="translate(19.1484, 36.3125)">
<path transform="scale(0.0040, -0.0040)" d="M0 -46c0 91 116 182 217 182c63 0 109 -35 109 -90c0 -87 -110 -182 -220 -182c-67 0 -106 39 -106 90z" fill="currentColor"/>
</g>
</a>
<a style="color:inherit;" xlink:href="textedit:///Users/zztt/projects/26-musiki/framework/public/lily/b682ba3365965b11499da7eafed46409.ly:16:66:67">
<g transform="translate(19.1689, 43.3586)">
<path transform="scale(0.0040, -0.0040)" d="M253 245l-50 -163c-30 -99 -121 -255 -218 -255c-45 0 -87 27 -87 69c0 39 17 77 52 77c24 0 44 -20 44 -44c0 -30 -38 -24 -38 -54c0 -10 11 -11 23 -11h6c48 0 61 58 73 108l68 273h-49c-11 0 -19 8 -19 19s8 19 19 19h60c32 96 118 191 213 191c45 0 87 -27 87 -69
c0 -39 -17 -77 -52 -77c-24 0 -44 19 -44 43c0 30 38 25 38 55c0 10 -10 11 -22 11h-7c-62 0 -70 -88 -86 -154h55c11 0 19 -8 19 -19s-8 -19 -19 -19h-66z" fill="currentColor"/>
</g>
</a>
<g transform="translate(19.2134, 38.8125)">
<rect x="-0.0650" y="-2.3138" width="0.1300" height="3.3245" ry="0.0400" fill="currentColor"/>
</g>
<a style="color:inherit;" xlink:href="textedit:///Users/zztt/projects/26-musiki/framework/public/lily/b682ba3365965b11499da7eafed46409.ly:15:39:40">
<g transform="translate(20.4477, 29.3918)">
<path transform="scale(0.0040, -0.0040)" d="M0 -46c0 91 116 182 217 182c63 0 109 -35 109 -90c0 -87 -110 -182 -220 -182c-67 0 -106 39 -106 90z" fill="currentColor"/>
</g>
</a>
<a style="color:inherit;" xlink:href="textedit:///Users/zztt/projects/26-musiki/framework/public/lily/b682ba3365965b11499da7eafed46409.ly:15:43:44">
<g transform="translate(20.3657, 31.7048)">
<path transform="scale(0.0040, -0.0040)" d="M161 32c73 0 97 162 97 178c0 18 -7 33 -25 33c-52 0 -102 -105 -102 -167c0 -26 9 -44 30 -44zM-53 141c0 2 51 151 134 151c35 0 59 -21 66 -52c29 31 67 52 103 52c69 0 107 -49 107 -114c0 -118 -105 -186 -159 -186c-49 0 -75 21 -89 21c-5 0 -9 -3 -11 -10l-29 -86
c-1 -2 -2 -5 -2 -8c0 -34 58 -17 58 -41c0 -7 -4 -14 -13 -14c-1 0 -51 5 -115 5c-66 0 -113 -5 -116 -5c-9 0 -14 7 -14 14c0 33 87 -3 102 41l102 300c2 7 4 14 4 20c0 8 -2 14 -11 14c-33 0 -63 -60 -79 -97c-5 -12 -15 -17 -24 -17c-8 0 -14 4 -14 12z" fill="currentColor"/>
</g>
</a>
<g transform="translate(21.6869, 26.3918)">
<rect x="-0.0650" y="-4.8100" width="0.1300" height="7.6238" ry="0.0400" fill="currentColor"/>
</g>
<g transform="translate(30.8718, 28.2018)">
<polygon stroke-linejoin="round" stroke-linecap="round" stroke-width="0.0800" fill="currentColor" stroke="currentColor" points="4.9026 -1.0100 4.9026 -0.6100 0.0400 0.2000 0.0400 -0.2000"/>
</g>
<a style="color:inherit;" xlink:href="textedit:///Users/zztt/projects/26-musiki/framework/public/lily/b682ba3365965b11499da7eafed46409.ly:15:46:47">
<g transform="translate(22.0519, 28.8918)">
<path transform="scale(0.0040, -0.0040)" d="M0 -46c0 91 116 182 217 182c63 0 109 -35 109 -90c0 -87 -110 -182 -220 -182c-67 0 -106 39 -106 90z" fill="currentColor"/>
</g>
</a>
<g transform="translate(23.2911, 26.3918)">
<rect x="-0.0650" y="-4.8100" width="0.1300" height="7.1238" ry="0.0400" fill="currentColor"/>
</g>
<a style="color:inherit;" xlink:href="textedit:///Users/zztt/projects/26-musiki/framework/public/lily/b682ba3365965b11499da7eafed46409.ly:15:48:49">
<g transform="translate(23.6561, 28.3918)">
<path transform="scale(0.0040, -0.0040)" d="M0 -46c0 91 116 182 217 182c63 0 109 -35 109 -90c0 -87 -110 -182 -220 -182c-67 0 -106 39 -106 90z" fill="currentColor"/>
</g>
</a>
<g transform="translate(24.8953, 26.3918)">
<rect x="-0.0650" y="-1.8281" width="0.1300" height="3.6419" ry="0.0400" fill="currentColor"/>
</g>
<g transform="translate(35.7494, 26.3918)">
<rect x="-0.0650" y="-2.3138" width="0.1300" height="3.3245" ry="0.0400" fill="currentColor"/>
</g>
<a style="color:inherit;" xlink:href="textedit:///Users/zztt/projects/26-musiki/framework/public/lily/b682ba3365965b11499da7eafed46409.ly:15:50:51">
<g transform="translate(25.2603, 27.8918)">
<path transform="scale(0.0040, -0.0040)" d="M0 -46c0 91 116 182 217 182c63 0 109 -35 109 -90c0 -87 -110 -182 -220 -182c-67 0 -106 39 -106 90z" fill="currentColor"/>
</g>
</a>
<g transform="translate(26.4995, 26.3918)">
<rect x="-0.0650" y="-2.2760" width="0.1300" height="3.5898" ry="0.0400" fill="currentColor"/>
</g>
<a style="color:inherit;" xlink:href="textedit:///Users/zztt/projects/26-musiki/framework/public/lily/b682ba3365965b11499da7eafed46409.ly:15:62:63">
<g transform="translate(35.6844, 23.8918)">
<path transform="scale(0.0040, -0.0040)" d="M0 -46c0 91 116 182 217 182c63 0 109 -35 109 -90c0 -87 -110 -182 -220 -182c-67 0 -106 39 -106 90z" fill="currentColor"/>
</g>
</a>
<a style="color:inherit;" xlink:href="textedit:///Users/zztt/projects/26-musiki/framework/public/lily/b682ba3365965b11499da7eafed46409.ly:15:52:53">
<g transform="translate(26.8645, 27.3918)">
<path transform="scale(0.0040, -0.0040)" d="M0 -46c0 91 116 182 217 182c63 0 109 -35 109 -90c0 -87 -110 -182 -220 -182c-67 0 -106 39 -106 90z" fill="currentColor"/>
</g>
</a>
<g transform="translate(28.1037, 26.3918)">
<rect x="-0.0650" y="-2.7240" width="0.1300" height="3.5378" ry="0.0400" fill="currentColor"/>
</g>
<a style="color:inherit;" xlink:href="textedit:///Users/zztt/projects/26-musiki/framework/public/lily/b682ba3365965b11499da7eafed46409.ly:15:54:55">
<g transform="translate(28.4687, 25.8918)">
<path transform="scale(0.0040, -0.0040)" d="M0 -46c0 91 116 182 217 182c63 0 109 -35 109 -90c0 -87 -110 -182 -220 -182c-67 0 -106 39 -106 90z" fill="currentColor"/>
</g>
</a>
<g transform="translate(29.7079, 26.3918)">
<rect x="-0.0650" y="-3.1719" width="0.1300" height="2.4857" ry="0.0400" fill="currentColor"/>
</g>
<a style="color:inherit;" xlink:href="textedit:///Users/zztt/projects/26-musiki/framework/public/lily/b682ba3365965b11499da7eafed46409.ly:15:56:57">
<g transform="translate(30.8718, 25.3918)">
<path transform="scale(0.0040, -0.0040)" d="M0 -46c0 91 116 182 217 182c63 0 109 -35 109 -90c0 -87 -110 -182 -220 -182c-67 0 -106 39 -106 90z" fill="currentColor"/>
</g>
</a>
<g transform="translate(30.9368, 26.3918)">
<rect x="-0.0650" y="-0.8138" width="0.1300" height="2.6131" ry="0.0400" fill="currentColor"/>
</g>
<a style="color:inherit;" xlink:href="textedit:///Users/zztt/projects/26-musiki/framework/public/lily/b682ba3365965b11499da7eafed46409.ly:15:58:59">
<g transform="translate(32.4760, 24.8918)">
<path transform="scale(0.0040, -0.0040)" d="M0 -46c0 91 116 182 217 182c63 0 109 -35 109 -90c0 -87 -110 -182 -220 -182c-67 0 -106 39 -106 90z" fill="currentColor"/>
</g>
</a>
<g transform="translate(32.5410, 26.3918)">
<rect x="-0.0650" y="-1.3138" width="0.1300" height="2.8502" ry="0.0400" fill="currentColor"/>
</g>
<g transform="translate(34.1452, 26.3918)">
<rect x="-0.0650" y="-1.8138" width="0.1300" height="3.0874" ry="0.0400" fill="currentColor"/>
</g>
<a style="color:inherit;" xlink:href="textedit:///Users/zztt/projects/26-musiki/framework/public/lily/b682ba3365965b11499da7eafed46409.ly:15:60:61">
<g transform="translate(34.0802, 24.3918)">
<path transform="scale(0.0040, -0.0040)" d="M0 -46c0 91 116 182 217 182c63 0 109 -35 109 -90c0 -87 -110 -182 -220 -182c-67 0 -106 39 -106 90z" fill="currentColor"/>
</g>
</a>
</svg>
