<svg xmlns="http://www.w3.org/2000/svg" xmlns:xlink="http://www.w3.org/1999/xlink" version="1.2" width="80.00mm" height="30.00mm" viewBox="0.0000 -0.0000 45.5244 17.0717">
<style type="text/css">
<![CDATA[
tspan { white-space: pre; }
]]>
</style>
<g transform="translate(14.2264, 9.7953)">
<line stroke-linejoin="round" stroke-linecap="round" stroke-width="0.1000" stroke="currentColor" x1="0.0500" y1="0" x2="25.5575" y2="0"/>
</g>
<g transform="translate(14.2264, 8.7953)">
<line stroke-linejoin="round" stroke-linecap="round" stroke-width="0.1000" stroke="currentColor" x1="0.0500" y1="0" x2="25.5575" y2="0"/>
</g>
<g transform="translate(14.2264, 7.7953)">
<line stroke-linejoin="round" stroke-linecap="round" stroke-width="0.1000" stroke="currentColor" x1="0.0500" y1="0" x2="25.5575" y2="0"/>
</g>
<g transform="translate(14.2264, 6.7953)">
<line stroke-linejoin="round" stroke-linecap="round" stroke-width="0.1000" stroke="currentColor" x1="0.0500" y1="0" x2="25.5575" y2="0"/>
</g>
<g transform="translate(14.2264, 5.7953)">
<line stroke-linejoin="round" stroke-linecap="round" stroke-width="0.1000" stroke="currentColor" x1="0.0500" y1="0" x2="25.5575" y2="0"/>
</g>
<g transform="translate(39.6439, 7.7953)">
<rect x="0.0000" y="-2.0000" width="0.1900" height="4.0000" ry="0.0000" fill="currentColor"/>
</g>
<g transform="translate(36.2750, 7.9853)">
<polygon stroke-linejoin="round" stroke-linecap="round" stroke-width="0.0800" fill="currentColor" stroke="currentColor" points="1.8546 -0.3900 1.8546 0.0100 0.0400 0.2000 0.0400 -0.2000"/>
</g>
<g transform="translate(36.2750, 8.7953)">
<polygon stroke-linejoin="round" stroke-linecap="round" stroke-width="0.0800" fill="currentColor" stroke="currentColor" points="1.8546 -0.3900 1.8546 0.0100 0.0400 0.2000 0.0400 -0.2000"/>
</g>
<g transform="translate(26.9173, 10.7953)">
<polygon stroke-linejoin="round" stroke-linecap="round" stroke-width="0.0800" fill="currentColor" stroke="currentColor" points="2.1240 -0.3900 2.1240 0.0100 0.0400 0.2000 0.0400 -0.2000"/>
</g>
<g transform="translate(22.8311, 8.7953)">
<path transform="scale(0.0040, -0.0040)" d="M218 136c66 0 108 -36 108 -89c0 -89 -113 -183 -218 -183c-66 0 -108 36 -108 89c0 89 113 183 218 183z" fill="currentColor"/>
</g>
<g transform="translate(15.0264, 8.7953)">
<path transform="scale(0.0040, -0.0040)" d="M266 -635h-6c-108 0 -195 88 -195 197c0 58 53 103 112 103c54 0 95 -47 95 -103c0 -52 -43 -95 -95 -95c-11 0 -21 2 -31 6c26 -39 68 -65 117 -65h4zM461 -203c68 24 113 90 113 164c0 90 -66 179 -173 190c19 -89 48 -242 60 -354zM74 28c0 -145 141 -247 264 -247
c1 0 47 0 82 6c-7 64 -29 203 -63 364c-79 -8 -124 -61 -124 -119c0 -44 25 -91 81 -123c5 -5 7 -10 7 -15c0 -11 -10 -22 -22 -22c-15 0 -126 62 -126 187c0 88 58 174 160 197c-14 58 -29 117 -46 175c-107 -121 -213 -243 -213 -403zM250 553c-29 96 -52 170 -52 346
c0 115 55 224 149 292c6 5 14 5 20 0c68 -80 133 -245 133 -358c0 -143 -86 -255 -180 -364c21 -68 39 -138 56 -207c2 0 7 1 13 1c155 0 256 -128 256 -261c0 -113 -74 -212 -180 -246c3 -35 5 -70 5 -105c0 -19 -1 -39 -2 -58c-7 -119 -88 -225 -202 -228l1 43
c93 2 153 92 159 191c1 18 2 37 2 55c0 31 -1 61 -4 92c-5 -1 -44 -8 -89 -8c-193 0 -333 180 -333 374c0 177 131 306 248 441zM428 916c0 34 1 66 -20 129c-99 -48 -162 -149 -162 -259c0 -52 12 -115 36 -194c80 97 146 198 146 324z" fill="currentColor"/>
</g>
<g transform="translate(19.3630, 7.7953)">
<path transform="scale(0.0040, -0.0040)" d="M164 292c-91 0 -102 -51 -118 -51c-8 0 -15 6 -15 15v228c0 10 8 18 17 16c45 -8 90 -13 135 -13s91 5 136 13c15 2 22 -10 16 -16c-67 -67 -163 -93 -258 -93c-9 0 -16 -8 -16 -17v-96c28 28 64 43 103 43c115 0 185 -51 185 -161c0 -94 -87 -160 -186 -160
c-82 0 -163 39 -163 113c0 36 30 66 66 66s65 -30 65 -66c0 -25 -40 -28 -40 -53c0 -30 37 -37 72 -37c57 0 70 71 70 137c0 63 -15 132 -69 132z" fill="currentColor"/>
</g>
<g transform="translate(19.2264, 9.8113)">
<path transform="scale(0.0040, -0.0040)" d="M196 117h117c0 -48 27 -94 72 -94c8 0 12 -5 12 -11s-4 -12 -12 -12c-44 0 -87 13 -131 13s-87 -13 -131 -13c-8 0 -12 6 -12 12s4 11 12 11c45 0 73 46 73 94zM-2 148c0 12 140 143 140 336c0 10 7 19 16 16c23 -7 47 -13 71 -13s48 6 71 13c14 4 23 -9 17 -16
l-284 -330h167v131c0 34 34 27 68 72c22 30 23 56 36 56c6 0 13 -5 13 -14v-245h72c10 0 15 -7 15 -14s-5 -15 -15 -15h-72v-8h-117v8h-167c-23 0 -31 14 -31 23z" fill="currentColor"/>
</g>
<g transform="translate(24.0703, 7.7953)">
<rect x="-0.0650" y="-2.0057" width="0.1300" height="2.8196" ry="0.0400" fill="currentColor"/>
</g>
<g transform="translate(34.1336, 12.1250)">
<text font-family="serif" font-style="italic" font-size="1.7459" text-anchor="start" fill="currentColor">
<tspan>3</tspan>
</text>
</g>
<g transform="translate(24.8651, 8.2953)">
<path transform="scale(0.0040, -0.0040)" d="M218 136c66 0 108 -36 108 -89c0 -89 -113 -183 -218 -183c-66 0 -108 36 -108 89c0 89 113 183 218 183z" fill="currentColor"/>
</g>
<g transform="translate(26.1043, 7.7953)">
<rect x="-0.0650" y="-2.1843" width="0.1300" height="2.4982" ry="0.0400" fill="currentColor"/>
</g>
<g transform="translate(30.9853, 11.8953)">
<line stroke-linejoin="round" stroke-linecap="round" stroke-width="0.1600" stroke="currentColor" x1="7.3834" y1="-0.7194" x2="7.3834" y2="-1.4194"/>
</g>
<g transform="translate(30.9853, 11.8953)">
<line stroke-linejoin="round" stroke-linecap="round" stroke-width="0.1600" stroke="currentColor" x1="-0.1991" y1="0.0194" x2="-0.1991" y2="-0.6806"/>
</g>
<g transform="translate(30.9853, 11.8953)">
<line stroke-linejoin="round" stroke-linecap="round" stroke-width="0.1600" stroke="currentColor" x1="7.3834" y1="-0.7194" x2="4.6311" y2="-0.4512"/>
</g>
<g transform="translate(30.9853, 11.8953)">
<line stroke-linejoin="round" stroke-linecap="round" stroke-width="0.1600" stroke="currentColor" x1="-0.1991" y1="0.0194" x2="2.7523" y2="-0.2682"/>
</g>
<g transform="translate(26.9173, 7.7953)">
<path transform="scale(0.0040, -0.0040)" d="M218 136c66 0 108 -36 108 -89c0 -89 -113 -183 -218 -183c-66 0 -108 36 -108 89c0 89 113 183 218 183z" fill="currentColor"/>
</g>
<g transform="translate(26.9823, 7.7953)">
<rect x="-0.0650" y="0.1861" width="0.1300" height="2.8082" ry="0.0400" fill="currentColor"/>
</g>
<g transform="translate(28.9513, 7.2953)">
<path transform="scale(0.0040, -0.0040)" d="M218 136c66 0 108 -36 108 -89c0 -89 -113 -183 -218 -183c-66 0 -108 36 -108 89c0 89 113 183 218 183z" fill="currentColor"/>
</g>
<g transform="translate(28.8693, 13.6830)">
<path transform="scale(0.0040, -0.0040)" d="M161 32c78 0 97 176 97 178c0 18 -7 33 -25 33c-61 0 -102 -124 -102 -173c0 -22 8 -38 30 -38zM-53 141c0 2 51 151 134 151c35 0 59 -21 66 -52c29 31 67 52 103 52c69 0 107 -49 107 -114c0 -118 -105 -186 -159 -186c-53 0 -70 20 -84 20c-7 0 -14 -3 -16 -9l-29 -86
c-1 -2 -1 -5 -1 -7c0 -37 57 -18 57 -42c0 -7 -4 -14 -13 -14c-3 0 -50 5 -116 5s-112 -5 -115 -5c-9 0 -14 7 -14 14c0 31 87 -1 102 41l102 300c2 7 4 14 4 20c0 8 -2 14 -11 14c-33 0 -63 -60 -79 -97c-5 -12 -15 -17 -24 -17c-8 0 -14 4 -14 12z" fill="currentColor"/>
</g>
<g transform="translate(29.0163, 7.7953)">
<rect x="-0.0650" y="-0.3139" width="0.1300" height="3.1296" ry="0.0400" fill="currentColor"/>
</g>
<g transform="translate(28.9513, 7.7953)">
<path stroke-width="0.0800" stroke-linejoin="round" stroke-linecap="round" stroke="currentColor" fill="currentColor" d="M0.5587 -1.5450C1.9278 -3.3027 7.6665 -4.5656 9.6470 -3.5450L9.6470 -3.5450C7.6923 -4.4484 1.9536 -3.1855 0.5587 -1.5450z"/>
</g>
<g transform="translate(30.9853, 7.2953)">
<path transform="scale(0.0040, -0.0040)" d="M218 136c66 0 108 -36 108 -89c0 -89 -113 -183 -218 -183c-66 0 -108 36 -108 89c0 89 113 183 218 183z" fill="currentColor"/>
</g>
<g transform="translate(31.0503, 7.7953)">
<rect x="-0.0650" y="-0.3139" width="0.1300" height="3.3139" ry="0.0400" fill="currentColor"/>
</g>
<g transform="translate(31.3375, 13.0830)">
<line stroke-linejoin="round" stroke-linecap="round" stroke-width="0.1000" stroke="currentColor" x1="0.0000" y1="0.0000" x2="5.7226" y2="0.6666"/>
</g>
<g transform="translate(31.3375, 13.0830)">
<line stroke-linejoin="round" stroke-linecap="round" stroke-width="0.1000" stroke="currentColor" x1="0.0000" y1="-0.0000" x2="5.7226" y2="-0.6666"/>
</g>
<g transform="translate(33.6708, 6.7953)">
<path transform="scale(0.0040, -0.0040)" d="M218 136c66 0 108 -36 108 -89c0 -89 -113 -183 -218 -183c-66 0 -108 36 -108 89c0 89 113 183 218 183z" fill="currentColor"/>
</g>
<g transform="translate(35.4250, 6.2953)">
<path transform="scale(0.0040, -0.0040)" d="M0 0c0 31 25 56 56 56s56 -25 56 -56s-25 -56 -56 -56s-56 25 -56 56z" fill="currentColor"/>
</g>
<g transform="translate(33.7358, 7.7953)">
<rect x="-0.0650" y="-0.8139" width="0.1300" height="3.3139" ry="0.0400" fill="currentColor"/>
</g>
<g transform="translate(33.8008, 10.2553)">
<path transform="scale(0.0040, -0.0040)" d="M0 0h-16v250h16v-250zM0 0v250c97 59 224 148 224 259c0 57 -15 112 -40 163c-3 16 10 27 23 27c7 0 15 -3 20 -11c25 -56 40 -117 40 -179c0 -203 -267 -306 -267 -509z" fill="currentColor"/>
</g>
<g transform="translate(24.0053, 5.7953)">
<polygon stroke-linejoin="round" stroke-linecap="round" stroke-width="0.0800" fill="currentColor" stroke="currentColor" points="2.1240 -0.3900 2.1240 0.0100 0.0400 0.2000 0.0400 -0.2000"/>
</g>
<g transform="translate(36.2750, 5.7953)">
<path transform="scale(0.0040, -0.0040)" d="M218 136c66 0 108 -36 108 -89c0 -89 -113 -183 -218 -183c-66 0 -108 36 -108 89c0 89 113 183 218 183z" fill="currentColor"/>
</g>
<g transform="translate(36.3400, 7.7953)">
<rect x="-0.0650" y="-1.8139" width="0.1300" height="2.8074" ry="0.0400" fill="currentColor"/>
</g>
<g transform="translate(22.8311, 7.7953)">
<path stroke-width="0.0800" stroke-linejoin="round" stroke-linecap="round" stroke="currentColor" fill="currentColor" d="M1.3314 -2.7457C2.7958 -3.5814 5.8782 -2.9126 6.8645 -1.5450L6.8645 -1.5450C5.8527 -2.7953 2.7704 -3.4642 1.3314 -2.7457z"/>
</g>
<g transform="translate(38.0396, 5.2953)">
<path transform="scale(0.0040, -0.0040)" d="M218 136c66 0 108 -36 108 -89c0 -89 -113 -183 -218 -183c-66 0 -108 36 -108 89c0 89 113 183 218 183z" fill="currentColor"/>
</g>
<g transform="translate(38.0601, 13.6830)">
<path transform="scale(0.0040, -0.0040)" d="M253 245l-50 -163c-30 -99 -121 -255 -218 -255c-45 0 -87 27 -87 69c0 39 17 77 52 77c24 0 44 -20 44 -44c0 -30 -38 -24 -38 -54c0 -10 11 -11 23 -11h6c48 0 61 58 73 108l68 273h-49c-11 0 -19 8 -19 19s8 19 19 19h60c32 96 118 191 213 191c45 0 87 -27 87 -69
c0 -39 -17 -77 -52 -77c-24 0 -44 19 -44 43c0 30 38 25 38 55c0 10 -10 11 -22 11h-7c-62 0 -70 -88 -86 -154h55c11 0 19 -8 19 -19s-8 -19 -19 -19h-66z" fill="currentColor"/>
</g>
<g transform="translate(38.1046, 7.7953)">
<rect x="-0.0650" y="-2.3139" width="0.1300" height="3.1304" ry="0.0400" fill="currentColor"/>
</g>
</svg>
